<svg xmlns="http://www.w3.org/2000/svg" viewBox="0 0 980 320" role="img" aria-labelledby="footerLogoTitle footerLogoDesc">
  <title id="footerLogoTitle">gikomba.shop footer logo</title>
  <desc id="footerLogoDesc">Gikomba Shop logo adapted for dark backgrounds.</desc>
  <rect width="980" height="320" fill="none"/>
  <g transform="translate(40 18)">
    <g transform="translate(0 8)">
      <rect x="0" y="96" width="76" height="18" rx="9" fill="#ff8400"/>
      <rect x="0" y="154" width="116" height="18" rx="9" fill="#ff8400"/>
      <rect x="0" y="212" width="92" height="18" rx="9" fill="#ff8400"/>
      <rect x="0" y="270" width="52" height="18" rx="9" fill="#ff8400"/>
    </g>
    <g transform="translate(124 0)">
      <path d="M52 66c6-11 18-18 31-18h42l-30 244H20z" fill="#ff8400"/>
      <path d="M110 28c0-12 10-22 22-22h16c12 0 22 10 22 22v60h-18V30c0-4-3-7-7-7h-10c-4 0-7 3-7 7v58h-18z" fill="#ffffff"/>
      <circle cx="128" cy="88" r="13" fill="#fff"/>
      <circle cx="152" cy="88" r="7" fill="#171717"/>
      <circle cx="252" cy="88" r="13" fill="#fff"/>
      <circle cx="228" cy="88" r="7" fill="#171717"/>
      <path d="M92 48h208c36 0 68 18 88 48l18 27-47 37c-18-22-45-36-75-36-55 0-100 45-100 100s45 100 100 100h63v-33h-63c-37 0-67-30-67-67s30-67 67-67h154v203c0 37-30 67-67 67H70c-37 0-67-30-67-67V115c0-37 30-67 67-67h22z" fill="#ffffff"/>
      <circle cx="214" cy="224" r="82" fill="#171717"/>
      <path d="M220 182c14 0 28 6 37 17h24l15 14-15 14h-15l16 19-20 18-16-18v44h-52v-44l-16 18-20-18 16-19h-15l-15-14 15-14h24c9-11 23-17 37-17z" fill="#ffffff"/>
      <path d="M294 209h132v127h-57c-17 0-32-7-43-18l-31-35h48l-24-29z" fill="#ffffff"/>
      <path d="M294 257h84l-29 33z" fill="#ff8400"/>
    </g>
    <g transform="translate(0 250)">
      <text x="0" y="0" font-family="Arial Black, Arial, sans-serif" font-size="98" fill="#ffffff">gikomba.</text>
      <text x="520" y="0" font-family="Arial Black, Arial, sans-serif" font-size="98" fill="#ff8400">shop</text>
      <text x="108" y="58" font-family="Arial, Helvetica, sans-serif" font-size="26" font-weight="700" letter-spacing="6" fill="#ffffff">GIKOMBA. ONLINE. DELIVERED.</text>
    </g>
  </g>
</svg>
