<svg xmlns="http://www.w3.org/2000/svg" viewBox="0 0 512 512" role="img" aria-labelledby="iconTitle iconDesc">
  <title id="iconTitle">gikomba.shop icon</title>
  <desc id="iconDesc">Shopping bag G mark for gikomba.shop.</desc>
  <rect width="512" height="512" rx="96" fill="#ffffff"/>
  <g transform="translate(44 36)">
    <rect x="0" y="136" width="72" height="20" rx="10" fill="#ff8400"/>
    <rect x="0" y="196" width="104" height="20" rx="10" fill="#ff8400"/>
    <rect x="0" y="256" width="84" height="20" rx="10" fill="#ff8400"/>
    <rect x="0" y="316" width="44" height="20" rx="10" fill="#ff8400"/>
    <path d="M132 86c6-11 18-18 31-18h42l-30 244h-75z" fill="#ff8400"/>
    <path d="M190 48c0-12 10-22 22-22h16c12 0 22 10 22 22v60h-18V50c0-4-3-7-7-7h-10c-4 0-7 3-7 7v58h-18z" fill="#171717"/>
    <circle cx="208" cy="108" r="13" fill="#fff"/>
    <circle cx="232" cy="108" r="7" fill="#171717"/>
    <circle cx="332" cy="108" r="13" fill="#fff"/>
    <circle cx="308" cy="108" r="7" fill="#171717"/>
    <path d="M172 68h208c36 0 68 18 88 48l18 27-47 37c-18-22-45-36-75-36-55 0-100 45-100 100s45 100 100 100h63v-33h-63c-37 0-67-30-67-67s30-67 67-67h116v163c0 37-30 67-67 67H150c-37 0-67-30-67-67V135c0-37 30-67 67-67h22z" fill="#171717"/>
    <circle cx="294" cy="244" r="82" fill="#fff"/>
    <path d="M300 202c14 0 28 6 37 17h24l15 14-15 14h-15l16 19-20 18-16-18v44h-52v-44l-16 18-20-18 16-19h-15l-15-14 15-14h24c9-11 23-17 37-17z" fill="#171717"/>
    <path d="M374 229h86v107h-39c-17 0-32-7-43-18l-24-27h48l-24-29z" fill="#171717"/>
    <path d="M374 277h66l-23 27z" fill="#ff8400"/>
  </g>
</svg>
